<svg xmlns="http://www.w3.org/2000/svg" viewBox="0 0 200 200" width="200" height="200">
  <defs>
    <linearGradient id="goldGrad" x1="0%" y1="0%" x2="100%" y2="100%">
      <stop offset="0%" stop-color="#FCEBA4" />
      <stop offset="45%" stop-color="#E2B755" />
      <stop offset="100%" stop-color="#9A7422" />
    </linearGradient>
  </defs>
  <circle cx="100" cy="100" r="94" fill="#0D111A" stroke="url(#goldGrad)" stroke-width="4" />
  <circle cx="100" cy="100" r="84" fill="#141B29" stroke="rgba(226, 183, 85, 0.3)" stroke-width="1.5" />
  
  <!-- Crown Icon -->
  <path d="M72 75 L80 62 L90 70 L100 55 L110 70 L120 62 L128 75 L124 82 L76 82 Z" fill="url(#goldGrad)" />
  <circle cx="80" cy="60" r="2.5" fill="#FFEBA4" />
  <circle cx="100" cy="53" r="3.5" fill="#FFEBA4" />
  <circle cx="120" cy="60" r="2.5" fill="#FFEBA4" />
  
  <!-- Chauffeur Luxury Car Front Grid -->
  <path d="M60 115 L68 96 Q78 88 100 88 Q122 88 132 96 L140 115 Q145 120 144 126 L142 130 L58 130 L56 126 Q55 120 60 115 Z" fill="none" stroke="url(#goldGrad)" stroke-width="2.5" />
  
  <!-- Grill slats -->
  <line x1="88" y1="108" x2="88" y2="124" stroke="url(#goldGrad)" stroke-width="1.5" />
  <line x1="96" y1="106" x2="96" y2="124" stroke="url(#goldGrad)" stroke-width="1.5" />
  <line x1="104" y1="106" x2="104" y2="124" stroke="url(#goldGrad)" stroke-width="1.5" />
  <line x1="112" y1="108" x2="112" y2="124" stroke="url(#goldGrad)" stroke-width="1.5" />
  
  <!-- Text -->
  <text x="100" y="156" font-family="'Plus Jakarta Sans', Arial, sans-serif" font-weight="900" font-size="13" fill="#FFFFFF" text-anchor="middle" letter-spacing="3">ROYAL STAR</text>
  <text x="100" y="172" font-family="'Plus Jakarta Sans', Arial, sans-serif" font-weight="600" font-size="8" fill="url(#goldGrad)" text-anchor="middle" letter-spacing="4">CHAUFFEUR</text>
</svg>
